<svg width="16" height="16" viewBox="0 0 16 16" fill="none" xmlns="http://www.w3.org/2000/svg">
<path d="M14.9031 3.56251C14.7469 2.83157 14.3559 2.35064 13.6341 2.11657C12.9122 1.88251 11.6053 1.97595 10.6928 2.64126C9.85563 3.25095 9.24719 4.34189 9.00531 5.08751C8.99819 5.10966 8.99739 5.13335 9.003 5.15593C9.00861 5.1785 9.0204 5.19906 9.03706 5.2153C9.05372 5.23154 9.07458 5.2428 9.09729 5.24783C9.12 5.25286 9.14367 5.25145 9.16562 5.24376C9.50219 5.12501 9.84437 5.02189 10.2281 5.0422C10.6969 5.0672 10.9941 5.4172 11.0066 5.83251C11.0159 6.13845 11.0003 6.41657 10.8941 6.69751C10.5584 7.59376 10.0312 8.46189 9.40812 9.22095C9.31422 9.33385 9.20956 9.43736 9.09562 9.53001C8.77656 9.78907 8.50781 9.72064 8.30156 9.36751C8.13281 9.0772 8.02031 8.77751 7.92031 8.45876C7.53281 7.21907 7.395 5.93251 7.17625 4.66126C7.07313 4.05251 6.9575 3.41845 6.61375 2.88439C6.25125 2.32845 5.71969 2.11626 5.05125 2.19689C4.59188 2.25314 3.89781 2.74345 3.55719 3.02157C3.55719 3.02157 1.80719 4.48626 1.00031 5.25126L1.66281 6.09501C1.66281 6.09501 2.2225 5.7047 2.5225 5.52345C2.70063 5.41751 2.91 5.39564 3.06 5.5297C3.20094 5.65157 3.36031 5.81095 3.44469 5.97032C3.62281 6.30439 3.79469 6.65407 3.90406 7.01314C4.31656 8.39657 4.70125 9.78314 5.08563 11.1763C5.2825 11.8881 5.52 12.5566 5.96063 13.1622C6.56406 13.9931 7.19844 14.1834 8.17688 13.8338C8.97094 13.5497 9.63344 13.0156 10.2394 12.4628C11.2741 11.5197 12.0869 10.4203 12.9119 9.3022C13.5497 8.43751 14.0778 7.56251 14.5184 6.58501C14.9531 5.61689 15.125 4.60189 14.9031 3.56251Z" fill="white"/>
</svg>
