<svg width="16" height="16" viewBox="0 0 16 16" fill="none" xmlns="http://www.w3.org/2000/svg">
<g clip-path="url(#clip0_729_244)">
<path d="M15.895 4.64969C15.895 3.24344 14.8606 2.11219 13.5825 2.11219C11.8512 2.03125 10.0856 2 8.28125 2H7.71875C5.91875 2 4.15 2.03125 2.41875 2.1125C1.14375 2.1125 0.109374 3.25 0.109374 4.65625C0.0312493 5.76844 -0.0018757 6.88094 -7.01111e-07 7.99344C-0.0031257 9.10594 0.032291 10.2195 0.106249 11.3341C0.106249 12.7403 1.14062 13.8809 2.41562 13.8809C4.23437 13.9653 6.1 14.0028 7.99687 13.9997C9.89687 14.0059 11.7573 13.9664 13.5781 13.8809C14.8562 13.8809 15.8906 12.7403 15.8906 11.3341C15.9656 10.2184 16 9.10594 15.9969 7.99031C16.004 6.87781 15.97 5.76427 15.895 4.64969ZM6.46875 11.0591V4.91844L11 7.98719L6.46875 11.0591Z" fill="#FF0000"/>
</g>
<defs>
<clipPath id="clip0_729_244">
<rect width="16" height="16" fill="white"/>
</clipPath>
</defs>
</svg>
